<svg id="eye" xmlns="http://www.w3.org/2000/svg" width="21.989" height="13.108" viewBox="0 0 21.989 13.108">
  <defs>
    <style>
      .cls-1 {
        fill: #707070;
      }
    </style>
  </defs>
  <path id="Path_19" data-name="Path 19" class="cls-1" d="M10.995,98.725c-4.2,0-8.011,2.3-10.823,6.032a.87.87,0,0,0,0,1.039c2.811,3.738,6.621,6.037,10.823,6.037s8.011-2.3,10.823-6.032a.87.87,0,0,0,0-1.039C19.006,101.024,15.2,98.725,10.995,98.725Zm.3,11.169a4.625,4.625,0,1,1,4.314-4.314A4.628,4.628,0,0,1,11.3,109.894Zm-.139-2.132a2.49,2.49,0,1,1,2.326-2.326A2.486,2.486,0,0,1,11.157,107.762Z" transform="translate(0 -98.725)"/>
</svg>
