<svg xmlns="http://www.w3.org/2000/svg" width="19.822" height="17.635" viewBox="0 0 19.822 17.635">
  <defs>
    <style>
      .cls-1 {
        fill: #707070;
      }
    </style>
  </defs>
  <path id="heart" class="cls-1" d="M18.25,1.726A5.33,5.33,0,0,0,14.285,0,4.987,4.987,0,0,0,11.17,1.075,6.372,6.372,0,0,0,9.911,2.39,6.369,6.369,0,0,0,8.652,1.075,4.986,4.986,0,0,0,5.538,0,5.33,5.33,0,0,0,1.573,1.726,6.2,6.2,0,0,0,0,5.957a7.378,7.378,0,0,0,1.966,4.829,41.921,41.921,0,0,0,4.921,4.619c.682.581,1.455,1.24,2.257,1.942a1.164,1.164,0,0,0,1.532,0c.8-.7,1.576-1.361,2.258-1.942a41.9,41.9,0,0,0,4.921-4.619,7.377,7.377,0,0,0,1.966-4.829A6.2,6.2,0,0,0,18.25,1.726Zm0,0" transform="translate(0)"/>
</svg>
