<svg id="Group_416" data-name="Group 416" xmlns="http://www.w3.org/2000/svg" width="29.789" height="29.786" viewBox="0 0 29.789 29.786">
  <defs>
    <style>
      .cls-1 {
        fill: #fff;
      }
    </style>
  </defs>
  <path id="Path_62" data-name="Path 62" class="cls-1" d="M26.276,0H3.618A3.828,3.828,0,0,0,0,3.779V26.452a3.446,3.446,0,0,0,3.618,3.334H26.276a3.355,3.355,0,0,0,3.513-3.334V3.779A3.739,3.739,0,0,0,26.276,0Zm-.7,4.255A1.023,1.023,0,0,1,26.6,5.277V8.552a1.022,1.022,0,0,1-1.023,1.023H22.3a1.023,1.023,0,0,1-1.023-1.023V5.277A1.023,1.023,0,0,1,22.3,4.255ZM14.982,9.449a5.7,5.7,0,1,1-5.716,5.7,5.709,5.709,0,0,1,5.716-5.7ZM26.6,25.692a1,1,0,0,1-.945.9H4.311c-.459,0-1.12-.446-1.12-.9V12.765h3.07A10.97,10.97,0,0,0,5.94,15.15a9.042,9.042,0,0,0,18.084,0,11.036,11.036,0,0,0-.32-2.384H26.6Zm0,0"/>
</svg>
