<svg xmlns="http://www.w3.org/2000/svg" width="35.963" height="34.262" viewBox="0 0 35.963 34.262">
  <defs>
    <style>
      .cls-1 {
        fill: #fff;
      }
    </style>
  </defs>
  <path id="Path_162" data-name="Path 162" class="cls-1" d="M35.963,13.942v1.1c-.114.689-.2,1.385-.349,2.064a13.283,13.283,0,0,1-3.807,6.574,65.611,65.611,0,0,1-5.077,4.446,55.434,55.434,0,0,1-9.081,5.852c-.4.208-.856.463-1.28.084s-.164-.83-.058-1.276c.228-.96.45-1.926.584-2.9.08-.581-.292-.907-.869-.954a20.11,20.11,0,0,1-7.464-2.047A15.3,15.3,0,0,1,1.4,20.1,11.787,11.787,0,0,1,1.341,9.071,14.875,14.875,0,0,1,7.5,2.74,20.857,20.857,0,0,1,21.572.31a18.609,18.609,0,0,1,10.05,4.805,12.988,12.988,0,0,1,4.062,7.069C35.8,12.766,35.871,13.356,35.963,13.942Zm-18.3-.369c.137.161.188.215.231.273l3.32,4.5a1,1,0,0,0,1.112.453.936.936,0,0,0,.658-1q.007-3.451,0-6.9a.929.929,0,1,0-1.855.022c0,1.258,0,2.515,0,3.773,0,.127-.017.255-.032.453-.122-.143-.2-.219-.258-.3-1.062-1.44-2.115-2.886-3.19-4.316a1.522,1.522,0,0,0-.65-.54c-.663-.223-1.19.248-1.194,1.031-.01,2.239-.01,4.478-.011,6.718a1.462,1.462,0,0,0,.039.363.946.946,0,0,0,1.025.725.9.9,0,0,0,.807-.9c.012-.229.005-.46.005-.69C17.66,16.065,17.66,14.89,17.66,13.573Zm8.474-1.783h.879c.568,0,1.137.023,1.7-.006a.9.9,0,0,0,.906-.86.856.856,0,0,0-.819-.976c-1.255-.04-2.513-.03-3.769.011a.807.807,0,0,0-.785.862q-.018,3.566,0,7.132a.853.853,0,0,0,.88.873c1.212.011,2.425.016,3.637,0a.9.9,0,0,0,.746-1.365,1.009,1.009,0,0,0-.966-.494c-.806.007-1.613,0-2.41,0V15.327c.872,0,1.713.007,2.553,0a.9.9,0,0,0,.842-.529.8.8,0,0,0-.118-.977,1.341,1.341,0,0,0-.8-.34c-.821-.044-1.646-.016-2.477-.016ZM8.192,16.975c0-.249,0-.445,0-.641-.006-1.81-.005-3.62-.022-5.43a.885.885,0,0,0-.893-.955.909.909,0,0,0-.937.923c-.017.214-.006.429-.007.644,0,2.055-.013,4.111-.013,6.166,0,.815.34,1.148,1.143,1.148,1.074,0,2.149,0,3.223,0a1.275,1.275,0,0,0,.489-.081.923.923,0,0,0,.551-1.006.993.993,0,0,0-.968-.763C9.918,16.968,9.078,16.975,8.192,16.975ZM14.445,14.4h-.019c0-1.149,0-2.3,0-3.446a.91.91,0,1,0-1.811,0q-.022,3.4-.024,6.8a.942.942,0,0,0,.936,1.068c.568,0,.914-.393.918-1.07C14.45,16.64,14.445,15.522,14.445,14.4Z"/>
</svg>
