<svg xmlns="http://www.w3.org/2000/svg" width="16" height="25" viewBox="0 0 16 25">
  <defs>
    <style>
      .cls-1 {
        fill: #199f92;
      }
    </style>
  </defs>
  <path id="Exclusion_1" data-name="Exclusion 1" class="cls-1" d="M8,25c-.448,0-1.156-.67-2.048-1.937a36.506,36.506,0,0,1-2.661-4.61C1.7,15.238,0,10.913,0,8.418A8.59,8.59,0,0,1,2.343,2.466a7.722,7.722,0,0,1,11.314,0A8.59,8.59,0,0,1,16,8.418c0,2.5-1.7,6.82-3.29,10.035a36.508,36.508,0,0,1-2.661,4.61C9.156,24.33,8.448,25,8,25ZM8,5.612A3.241,3.241,0,0,0,4.848,8.928,3.241,3.241,0,0,0,8,12.245a3.241,3.241,0,0,0,3.152-3.317A3.241,3.241,0,0,0,8,5.612Z"/>
</svg>
