<svg xmlns="http://www.w3.org/2000/svg" width="248.917" height="65.256" viewBox="0 0 248.917 65.256">
  <defs>
    <style>
      .cls-1 {
        fill: #fff;
      }
    </style>
  </defs>
  <g id="Group_417" data-name="Group 417" transform="translate(-3863.346 753.277)">
    <path id="Path_31" data-name="Path 31" class="cls-1" d="M3863.346-694.926c.292,1.315.54,2.642.884,3.944a34.6,34.6,0,0,0,6.922,13.116c4.019,4.9,8.222,9.652,12.35,14.463.574.669,1.175,1.314,1.818,2.032.781-.871,1.55-1.692,2.279-2.547,4.156-4.875,8.4-9.68,12.423-14.664a34.038,34.038,0,0,0,6.739-13.717,16.677,16.677,0,0,0-3.47-14.913,21.461,21.461,0,0,0-14.488-7.854,24.173,24.173,0,0,0-14.213,2.155c-5.653,2.8-9.512,7.117-10.9,13.416-.126.568-.229,1.141-.342,1.712Zm32.818-6.89c-2.479,1.641-4.908,3.256-7.345,4.861-2.589,1.7-5.156,3.447-7.788,5.083a10.4,10.4,0,0,1-7.364,1.44c-2.706-.439-4.036-2.164-3.844-4.9a13.044,13.044,0,0,1,3.642-8.062,16.055,16.055,0,0,1,14.918-5.379,14.346,14.346,0,0,1,10.6,7.158,15.093,15.093,0,0,1,2.648,7.543c.1,7.3-3.127,12.776-9.527,16.315a7.658,7.658,0,0,1-4.915.928c-2.233-.329-3.884-1.756-4.085-3.658a6.062,6.062,0,0,1,.7-3.689,43.455,43.455,0,0,1,3.113-4.84A68.741,68.741,0,0,1,3894.67-697c1.033-.971,2.036-1.975,3.069-2.981Z" transform="translate(0 -26.65)"/>
    <path id="Path_32" data-name="Path 32" class="cls-1" d="M4003.37-753.277c-1.4.313-2.8.653-4.207.935q-12.376,2.476-24.757,4.932a4.433,4.433,0,0,0-.473.162c.463.4.857.767,1.278,1.1,1.921,1.513,3.855,3.01,5.771,4.528a1.079,1.079,0,0,0,1.294.1q7.144-3.38,14.309-6.711c.222-.1.448-.2.672-.294l.209.227a1.537,1.537,0,0,0-.461.182q-5.371,4.643-10.719,9.313a2.16,2.16,0,0,0-.613,1c-.489,1.743-.926,3.5-1.379,5.253a.819.819,0,0,0,.012.5l3.668-4.484,7.387,5.24,1.238-3.223q3.484-9.058,6.967-18.117c.081-.21.141-.427.211-.642Z" transform="translate(-77.642 0)"/>
    <path id="Path_33" data-name="Path 33" class="cls-1" d="M4422.883-654.157c-.521-2.987-.974-5.988-1.579-8.958-1.239-6.077-2.561-12.137-3.847-18.2-.083-.391-.161-.688-.712-.686-5.548.023-11.1.014-16.646.016-.132,0-.265.02-.447.035v43.834h10.929c-.008-11.789.145-23.6-.548-35.407l.23-.083a2.9,2.9,0,0,1,.239.575c.346,1.939.649,3.886,1.023,5.82q2.34,12.1,4.714,24.2c.32,1.64.667,3.275,1,4.923h9.917q4.416-17.612,7.714-35.505l.224.037q-.123,17.694-.247,35.44h11.829v-43.83c-.21-.016-.385-.04-.56-.04-5.323,0-10.644,0-15.967-.012-.459,0-.681.108-.794.583-1.874,7.837-3.771,15.667-5.641,23.5-.268,1.121-.417,2.271-.623,3.407-.022.121-.063.239-.1.358Z" transform="translate(-376.533 -50.039)"/>
    <path id="Path_34" data-name="Path 34" class="cls-1" d="M4619.878-655.972v-9.147h-18.556v-7.52H4620.6v-9.192h-31.167v43.839h31.238c.451-2.978.9-5.968,1.368-9.033h-20.716c-.024-.25-.058-.443-.058-.636,0-2.539.016-5.079-.017-7.618-.007-.594.208-.705.745-.7,5.663.017,11.325.01,16.987.01Z" transform="translate(-509.776 -50.161)"/>
    <path id="Path_35" data-name="Path 35" class="cls-1" d="M4068.437-637.973h12.344V-672.65h11.372v-9.181h-35.16v9.138h11.444Z" transform="translate(-135.957 -50.161)"/>
    <path id="Path_36" data-name="Path 36" class="cls-1" d="M4213.542-637.983v-34.656h11.374v-9.183h-35.155v9.13H4201.2v34.708Z" transform="translate(-229.172 -50.168)"/>
    <path id="Path_37" data-name="Path 37" class="cls-1" d="M4340.279-637.967v-43.839h-12.226v43.839Z" transform="translate(-326.264 -50.179)"/>
  </g>
</svg>
