<svg xmlns="http://www.w3.org/2000/svg" width="216.785" height="219.299" viewBox="0 0 216.785 219.299">
  <defs>
    <style>
      .cls-1 {
        fill: none;
        stroke: rgba(255,255,255,0.9);
        stroke-linecap: round;
        stroke-linejoin: round;
        stroke-width: 9px;
      }

      .cls-2 {
        fill: rgba(255,255,255,0.9);
      }

      .cls-3 {
        fill: rgba(0,0,0,0);
        stroke: #199f92;
        stroke-miterlimit: 10;
        stroke-width: 2px;
      }
    </style>
  </defs>
  <g id="heart" transform="translate(-244.082 -196.514) rotate(14)">
    <path id="Path_95" data-name="Path 95" class="cls-1" d="M467.409,125.5H364.735A33.237,33.237,0,0,0,331.5,158.735v75.059a33.237,33.237,0,0,0,33.235,33.235h80.354L471.3,298.1l-.383-31.257a33.236,33.236,0,0,0,29.724-33.045V158.735A33.237,33.237,0,0,0,467.409,125.5Z"/>
    <g id="Group_222" data-name="Group 222" transform="translate(371.92 161.245)">
      <path id="Path_96" data-name="Path 96" class="cls-2" d="M423.718,143.542a23.753,23.753,0,0,0-17.663-7.687,22.212,22.212,0,0,0-13.876,4.79,28.509,28.509,0,0,0-5.609,5.856,28.35,28.35,0,0,0-5.609-5.856,22.2,22.2,0,0,0-13.873-4.79,23.747,23.747,0,0,0-17.663,7.687,27.606,27.606,0,0,0-7.005,18.851c0,7.469,2.782,14.3,8.756,21.515,5.347,6.448,13.027,13,21.925,20.577,3.038,2.59,6.48,5.523,10.056,8.651a5.188,5.188,0,0,0,6.826,0c3.576-3.125,7.021-6.061,10.059-8.651,8.9-7.581,16.578-14.129,21.925-20.577,5.974-7.21,8.756-14.045,8.756-21.515A27.607,27.607,0,0,0,423.718,143.542Z" transform="translate(-342.419 -135.855)"/>
    </g>
    <path id="Path_97" data-name="Path 97" class="cls-3" d="M368,176" transform="translate(89.495 123.822)"/>
  </g>
</svg>
