<svg id="Group_415" data-name="Group 415" xmlns="http://www.w3.org/2000/svg" width="34.335" height="26.976" viewBox="0 0 34.335 26.976">
  <defs>
    <style>
      .cls-1 {
        fill: #fff;
      }
    </style>
  </defs>
  <path id="Path_60" data-name="Path 60" class="cls-1" d="M365.3,260.592q.651.46,3.927,2.729t5.02,3.5q.191.134.814.584t1.035.728c.274.186.606.393,1,.624a5.778,5.778,0,0,0,1.1.517,3.053,3.053,0,0,0,.959.172h.038a3.053,3.053,0,0,0,.959-.172,5.867,5.867,0,0,0,1.1-.517c.389-.231.721-.437,1-.624s.619-.427,1.034-.728.688-.495.815-.584q1.762-1.227,8.967-6.227a9.093,9.093,0,0,0,2.337-2.356,5.063,5.063,0,0,0,.94-2.893,3.092,3.092,0,0,0-3.066-3.066h-28.2a2.737,2.737,0,0,0-2.271,1,3.869,3.869,0,0,0-.795,2.491,4.475,4.475,0,0,0,1.054,2.616,9.5,9.5,0,0,0,2.241,2.213Zm0,0" transform="translate(-362 -252.276)"/>
  <path id="Path_61" data-name="Path 61" class="cls-1" d="M394.418,283.533q-6.283,4.252-9.541,6.609-1.092.806-1.773,1.255a10.793,10.793,0,0,1-1.81.92,5.514,5.514,0,0,1-2.108.47h-.038a5.509,5.509,0,0,1-2.108-.47,10.857,10.857,0,0,1-1.811-.92q-.679-.449-1.772-1.255-2.587-1.9-9.523-6.609A10.162,10.162,0,0,1,362,281.866v15.212a3.073,3.073,0,0,0,3.066,3.066h28.2a3.074,3.074,0,0,0,3.066-3.066V281.866a10.613,10.613,0,0,1-1.917,1.667Zm0,0" transform="translate(-362 -273.168)"/>
</svg>
