<svg id="main_hotspot_noodles_off" data-name="main hotspot noodles off" xmlns="http://www.w3.org/2000/svg" width="39.843" height="39.843" viewBox="0 0 39.843 39.843">
  <defs>
    <style>
      .cls-1 {
        fill: #199f92;
      }
    </style>
  </defs>
  <g id="Group_1304" data-name="Group 1304" transform="translate(0 0)">
    <g id="Group_1303" data-name="Group 1303">
      <path id="Path_510" data-name="Path 510" class="cls-1" d="M39.481,3.807a.908.908,0,0,0-.794-.148L19.552,9.125a4.932,4.932,0,0,0-.771-1.044c-.014-.016-.024-.029-.038-.044L39.168,2.688a.908.908,0,0,0,.676-.878l0-.9A.906.906,0,0,0,38.687.037L.657,10.9a.906.906,0,0,0,.249,1.777.942.942,0,0,0,.23-.029L7.2,11.06a2.127,2.127,0,0,1-.629,1,5.058,5.058,0,0,0-.743.983L.657,14.523A.906.906,0,0,0,.906,16.3a.942.942,0,0,0,.23-.029L5.491,15.13a3.773,3.773,0,0,0,1.083,2.135,1.768,1.768,0,0,1,0,2.772,3.938,3.938,0,0,0-1.028,1.7H4.528a.905.905,0,0,0-.906.906v.906a16.305,16.305,0,0,0,9.36,14.727.893.893,0,0,0-.3.667.905.905,0,0,0,.906.906H26.261a.905.905,0,0,0,.906-.906.894.894,0,0,0-.3-.667,16.3,16.3,0,0,0,9.36-14.727V22.64a.905.905,0,0,0-.906-.906H18.389a4.771,4.771,0,0,1,.392-.48,3.54,3.54,0,0,0,0-5.206,1.764,1.764,0,0,1,0-2.768,3.86,3.86,0,0,0,1.056-1.908L39.168,6.31a.908.908,0,0,0,.676-.878l0-.9A.9.9,0,0,0,39.481,3.807ZM16.845,8.534a6.2,6.2,0,0,0,.6.765c.113.124.211.235.3.344l-1.513.432a3.218,3.218,0,0,0-.484-1.252Zm-1.686,4.747a5.645,5.645,0,0,0,.658-.855l1.694-.444-.071.08a3.537,3.537,0,0,0,0,5.2,1.768,1.768,0,0,1,0,2.772,3.938,3.938,0,0,0-1.028,1.7H14.767a4.77,4.77,0,0,1,.392-.48,3.54,3.54,0,0,0,0-5.206,1.764,1.764,0,0,1,0-2.768Zm-1.32-3.959a1.831,1.831,0,0,1,.639,1.253l-1.852.529a3.223,3.223,0,0,0,.052-.423,3.375,3.375,0,0,0-.157-1.014Zm-.81,3.834a3.258,3.258,0,0,0-.351,1.507,3.576,3.576,0,0,0,1.141,2.6,1.768,1.768,0,0,1,0,2.772,3.938,3.938,0,0,0-1.028,1.7H11.145a4.77,4.77,0,0,1,.392-.48,3.54,3.54,0,0,0,0-5.206,1.814,1.814,0,0,1-.67-1.386,1.49,1.49,0,0,1,.372-1.038ZM9.041,10.578l1.732-.454a1.576,1.576,0,0,1,.094.556,1.486,1.486,0,0,1-.367,1.03l-1.811.517a3.267,3.267,0,0,0,.367-1.548C9.056,10.644,9.042,10.615,9.041,10.578Zm.074,3.6a3.269,3.269,0,0,0-.059.482,3.576,3.576,0,0,0,1.141,2.6,1.768,1.768,0,0,1,0,2.772,3.938,3.938,0,0,0-1.028,1.7H7.523a4.77,4.77,0,0,1,.392-.48,3.54,3.54,0,0,0,0-5.206,1.818,1.818,0,0,1-.67-1.378Zm25.3,9.365a14.488,14.488,0,1,1-28.977,0Z" transform="translate(0 -0.002)"/>
    </g>
  </g>
</svg>
