<svg id="main_hotspot_temple_off" data-name="main hotspot temple off" xmlns="http://www.w3.org/2000/svg" width="39.842" height="39.843" viewBox="0 0 39.842 39.843">
  <defs>
    <style>
      .cls-1 {
        fill: #199f92;
      }
    </style>
  </defs>
  <path id="Path_506" data-name="Path 506" class="cls-1" d="M74.656,357.312a2.657,2.657,0,0,0,2.656-2.651v-.012a2.656,2.656,0,1,0-2.656,2.663Zm.316-1.367a1.33,1.33,0,0,1-1.465-.625h2.3a1.323,1.323,0,0,1-.832.625Zm-.633-2.58a1.325,1.325,0,0,1,1.467.626h-2.3c0-.008.008-.017.013-.025a1.32,1.32,0,0,1,.819-.6Z" transform="translate(-67.352 -324.109)"/>
  <rect id="Rectangle_972" data-name="Rectangle 972" class="cls-1" width="1.328" height="1.328" transform="translate(15.273 15.938)"/>
  <rect id="Rectangle_973" data-name="Rectangle 973" class="cls-1" width="1.328" height="1.328" transform="translate(17.929 15.938)"/>
  <rect id="Rectangle_974" data-name="Rectangle 974" class="cls-1" width="1.328" height="1.328" transform="translate(20.585 15.938)"/>
  <rect id="Rectangle_975" data-name="Rectangle 975" class="cls-1" width="1.328" height="1.328" transform="translate(23.241 15.938)"/>
  <path id="Path_507" data-name="Path 507" class="cls-1" d="M378.028,357.188A2.658,2.658,0,1,0,376,354.6s0,0,0,.008v0A2.66,2.66,0,0,0,378.028,357.188Zm.316-1.29a1.323,1.323,0,0,1-.832-.625h2.3A1.33,1.33,0,0,1,378.344,355.9Zm-.372-2.426a1.319,1.319,0,0,1,.686-.193,1.336,1.336,0,0,1,.319.039,1.32,1.32,0,0,1,.819.6l.013.025h-2.3A1.321,1.321,0,0,1,377.972,353.473Z" transform="translate(-346.123 -324.062)"/>
  <path id="Path_508" data-name="Path 508" class="cls-1" d="M55.688,38.8h0l-2.836-3.4a2.794,2.794,0,0,0,1-2.148.664.664,0,1,0-1.328,0,1.477,1.477,0,0,1-.821,1.328h-5.82V29.778l.3-.075a6.608,6.608,0,0,0,5.012-6.42.664.664,0,0,0-1.134-.47l-.912.912a5.251,5.251,0,0,1-3.523,1.544l-1.741-3.483a2.8,2.8,0,0,0,.67-1.824.664.664,0,1,0-1.328,0,1.477,1.477,0,0,1-.82,1.328H40.062l-.375-.187A8.34,8.34,0,0,1,37.895,19.9c-.19-.168-.374-.346-.55-.533a1.992,1.992,0,1,0-2.848,0A8.412,8.412,0,0,1,32.154,21.1l-.374.187H28.772a1.478,1.478,0,0,1-.82-1.328.664.664,0,1,0-1.328,0,2.8,2.8,0,0,0,1.122,2.247l-1.53,3.06a5.251,5.251,0,0,1-3.523-1.544l-.912-.912a.664.664,0,0,0-1.134.47,6.608,6.608,0,0,0,5.012,6.42l.3.075v4.794h-5.82a1.477,1.477,0,0,1-.821-1.328.664.664,0,0,0-1.328,0,2.794,2.794,0,0,0,1,2.148l-2.836,3.4h0A.661.661,0,0,0,16,39.22v2.656a.664.664,0,0,0,.664.664h1.992V55.157a.664.664,0,0,0,.664.664h33.2a.664.664,0,0,0,.664-.664V42.54h1.992a.664.664,0,0,0,.664-.664V39.22a.661.661,0,0,0-.154-.424Zm-3.52-.24L49.955,35.9h1.591l2.213,2.656Zm-3.32,0L46.635,35.9h1.591l2.213,2.656Zm-27.446,0L23.615,35.9h1.591l-2.213,2.656Zm20.5-7.968v3.984H29.945V30.588ZM27.288,30.11l1.328.332v4.13H27.288Zm-.664,6.163v2.283h-1.9Zm1.328-.374H43.889v1.328H27.952Zm17.265.374,1.9,2.283h-1.9Zm-1.992-1.7v-4.13l1.328-.332v4.462Zm-.918-9.3L40.979,22.62h1.835l1.328,2.656Zm-6.684-1.258q-.415.208-.846.381l.889-1.779h.507l.889,1.779q-.43-.174-.846-.381A.664.664,0,0,0,35.624,24.018Zm-4.593,1.234,1.316-2.632h1.835l-1.17,2.34a11.979,11.979,0,0,1-1.982.292Zm7.8-.292-1.17-2.34h1.835l1.316,2.632A11.979,11.979,0,0,1,38.829,24.96Zm-2.908-7.652a.664.664,0,1,1-.664.664A.664.664,0,0,1,35.921,17.307Zm-.17,2.648c.056,0,.113.008.17.008s.116,0,.173-.008a9.713,9.713,0,0,0,.923.936q.236.208.484.4H34.339a9.755,9.755,0,0,0,1.411-1.336ZM29.027,22.62h1.835l-1.328,2.656H27.7Zm-6.7,2.554A6.567,6.567,0,0,0,26.434,26.6H30.3a13.275,13.275,0,0,0,3.3-.42.668.668,0,0,0,.092-.025,13.264,13.264,0,0,0,2.233-.809,13.26,13.26,0,0,0,2.233.809.659.659,0,0,0,.094.025,13.27,13.27,0,0,0,3.3.42h3.861a6.567,6.567,0,0,0,4.111-1.431,5.282,5.282,0,0,1-3.659,3.242l-1.4.35a16.607,16.607,0,0,1-4.024.5H31.4a16.6,16.6,0,0,1-4.022-.495l-1.4-.35A5.282,5.282,0,0,1,22.323,25.173ZM20.3,35.9h1.591l-2.213,2.656H18.082Zm-2.967,3.984h9.3v1.328h-9.3Zm9.3,2.656v7.968h-6.64V42.54Zm-6.64,9.3h6.64v2.656h-6.64Zm7.968-13.28H43.889V54.493H42.561V46.524a6.64,6.64,0,1,0-13.28,0v7.968H27.952Zm13.28,8.222-1.35-.675a3.984,3.984,0,0,0-7.924,0l-1.35.675v-.254a5.312,5.312,0,0,1,10.624,0ZM30.609,54.493v-6.23L32.9,47.118a.664.664,0,0,0,.367-.594,2.656,2.656,0,0,1,5.312,0,.664.664,0,0,0,.367.594l2.289,1.145v6.23Zm21.249,0h-6.64V51.837h6.64Zm0-3.984h-6.64V42.54h6.64Zm2.656-9.3h-9.3V39.884h9.3Z" transform="translate(-16 -15.977)"/>
</svg>
