<svg xmlns="http://www.w3.org/2000/svg" width="40.804" height="36.658" viewBox="0 0 40.804 36.658">
  <defs>
    <style>
      .cls-1 {
        fill: #199f92;
      }
    </style>
  </defs>
  <g id="main_hotspot_art_off" data-name="main hotspot art off" transform="translate(0)">
    <path id="Path_513" data-name="Path 513" class="cls-1" d="M47.445,205.96a3.333,3.333,0,0,0-2.058-.715,3.3,3.3,0,0,0-2.583,1.233,3.27,3.27,0,0,0,.525,4.621,3.332,3.332,0,0,0,2.058.715,3.3,3.3,0,0,0,2.584-1.234,3.269,3.269,0,0,0-.525-4.619Zm-.649,3.675a1.814,1.814,0,0,1-2.533.282,1.763,1.763,0,0,1-.285-2.495,1.816,1.816,0,0,1,2.534-.281,1.763,1.763,0,0,1,.285,2.493Z" transform="translate(-36.797 -181.553)"/>
    <path id="Path_514" data-name="Path 514" class="cls-1" d="M167.251,103.726a3.3,3.3,0,0,0,3.118-2.207,3.242,3.242,0,0,0-.146-2.5,3.317,3.317,0,0,0-4.411-1.534,3.272,3.272,0,0,0-1.543,4.386A3.333,3.333,0,0,0,167.251,103.726Zm-1.707-3.866a1.77,1.77,0,0,1,.916-1.019,1.811,1.811,0,0,1,2.407.832,1.747,1.747,0,0,1,.079,1.349,1.773,1.773,0,0,1-.916,1.02,1.8,1.8,0,0,1-.78.177,1.818,1.818,0,0,1-1.628-1.011A1.745,1.745,0,0,1,165.545,99.86Z" transform="translate(-143.358 -87.033)"/>
    <path id="Path_515" data-name="Path 515" class="cls-1" d="M107.107,61.906a3.35,3.35,0,0,0,.737.082,3.285,3.285,0,0,0,3.222-2.552,3.25,3.25,0,0,0-.421-2.471,3.284,3.284,0,0,0-2.068-1.462,3.348,3.348,0,0,0-.74-.083,3.282,3.282,0,0,0-3.218,2.553,3.242,3.242,0,0,0,.419,2.471A3.28,3.28,0,0,0,107.107,61.906Zm-1.021-3.595a1.783,1.783,0,0,1,1.75-1.384,1.841,1.841,0,0,1,.407.046,1.788,1.788,0,0,1,1.127.8A1.751,1.751,0,0,1,109.6,59.1a1.807,1.807,0,0,1-1.754,1.382,1.843,1.843,0,0,1-.405-.046,1.784,1.784,0,0,1-1.127-.794A1.747,1.747,0,0,1,106.086,58.312Z" transform="translate(-91.411 -50.537)"/>
    <path id="Path_516" data-name="Path 516" class="cls-1" d="M39.976,81.278a3.273,3.273,0,0,0,.524-4.621,3.326,3.326,0,0,0-4.642-.519,3.27,3.27,0,0,0-.523,4.621,3.321,3.321,0,0,0,4.642.519Zm-3.468-1.463a1.764,1.764,0,0,1,.283-2.494,1.819,1.819,0,0,1,2.535.281,1.767,1.767,0,0,1-.286,2.5,1.815,1.815,0,0,1-2.533-.283Z" transform="translate(-30.265 -68.029)"/>
    <path id="Path_517" data-name="Path 517" class="cls-1" d="M40.516,22.39a1,1,0,0,0-.729-.288c-.43,0-1.571,0-8.5,5.9l-.421.36A18.483,18.483,0,0,0,13.571,16.512h0a18.136,18.136,0,0,0-8.624,2.479C1.755,20.866,0,23.373,0,26.05c0,3.232,1.824,4.584,3.289,5.67,1.194.886,2.138,1.585,2.138,3.119s-.943,2.232-2.136,3.117C1.827,39.042,0,40.393,0,43.626c0,2.677,1.758,5.184,4.947,7.061A18.15,18.15,0,0,0,13.58,53.17h.005a18.431,18.431,0,0,0,13.061-5.363,18.12,18.12,0,0,0,5.41-12.762c1.169-1.331,2.3-2.654,3.337-3.9,1.77-2.132,3.13-3.892,4.044-5.229C40.648,24.144,41.178,23.058,40.516,22.39ZM25.586,46.737a16.933,16.933,0,0,1-12,4.926h0c-4.859,0-12.068-3.377-12.069-8.038,0-2.474,1.3-3.438,2.677-4.459,1.287-.954,2.746-2.036,2.745-4.328s-1.46-3.374-2.747-4.328c-1.378-1.022-2.679-1.987-2.68-4.461,0-2.862,2.632-4.837,4.2-5.76a16.792,16.792,0,0,1,7.86-2.271h0a16.976,16.976,0,0,1,16.074,11.4c-3.267,2.853-6.8,6.142-9.44,8.785-4.376.566-4.972,3.483-5.408,5.625-.371,1.824-.612,2.706-2.02,2.819a.753.753,0,0,0-.228,1.447,13.793,13.793,0,0,0,4.76.918h0a7.707,7.707,0,0,0,4.471-1.263A7.781,7.781,0,0,0,24.8,42.879c1.721-1.742,3.688-3.842,5.633-6.005A16.625,16.625,0,0,1,25.586,46.737Zm-2.3-4c-.8,3.163-2.806,4.766-5.975,4.766h0A11.3,11.3,0,0,1,15,47.246a6.064,6.064,0,0,0,1.272-3.121c.414-2.035.805-3.96,4.007-4.418Zm10.4-11.9C30.7,34.4,27.085,38.392,24.11,41.43l-.461-.464-2.032-2.048c2.7-2.685,6.158-5.887,9.387-8.689h0c.376-.327.75-.649,1.119-.963a57.889,57.889,0,0,1,6.712-5.191A58.033,58.033,0,0,1,33.685,30.84Z" transform="translate(0 -16.512)"/>
  </g>
</svg>
