<svg xmlns="http://www.w3.org/2000/svg" width="41.414" height="39.308" viewBox="0 0 41.414 39.308">
  <defs>
    <style>
      .cls-1 {
        fill: #199f92;
        stroke: #199f92;
        stroke-width: 0.5px;
      }
    </style>
  </defs>
  <path id="main_hotspot_historical_site_off" data-name="main hotspot historical site off" class="cls-1" d="M40.669.1a.586.586,0,0,0-.52-.055,61.923,61.923,0,0,1-19.69,3A61.97,61.97,0,0,1,.765.04.586.586,0,0,0,.245.1.524.524,0,0,0,0,.534V4.781a.531.531,0,0,0,.353.493c.029.011,1.08.4,2.943.895v4.614a.546.546,0,0,0,.559.531H6.173v5.059H3.758A.546.546,0,0,0,3.2,16.9v3.032a.546.546,0,0,0,.559.531H6.173V34.711h-.44a1.483,1.483,0,0,0-1.518,1.44v2.124a.546.546,0,0,0,.559.531h9.17a.546.546,0,0,0,.559-.531V36.151a1.483,1.483,0,0,0-1.518-1.44h-.44V20.465H28.368V34.711h-.44a1.483,1.483,0,0,0-1.518,1.44v2.124a.546.546,0,0,0,.559.531h9.17a.546.546,0,0,0,.559-.531V36.151a1.482,1.482,0,0,0-1.518-1.44h-.44V20.465h2.415a.546.546,0,0,0,.559-.531V16.9a.546.546,0,0,0-.559-.531H34.741V11.314h2.317a.546.546,0,0,0,.559-.531V6.169c1.863-.5,2.914-.884,2.943-.895a.532.532,0,0,0,.354-.493V.534A.523.523,0,0,0,40.669.1ZM7.292,11.314h4.136v5.059H7.292Zm11.008,0v5.059H12.546V11.314Zm4.315,5.059V11.314h5.754v5.059ZM13.385,36.15v1.595H5.334V36.151a.39.39,0,0,1,.4-.379h7.252a.39.39,0,0,1,.4.378Zm-1.958-1.44H7.292V20.465h4.136ZM35.58,36.15v1.595H27.529V36.151a.39.39,0,0,1,.4-.379H35.18A.39.39,0,0,1,35.58,36.15Zm-1.958-1.44H29.487V20.465h4.135ZM36.6,19.4H4.318v-1.97H18.859a.546.546,0,0,0,.559-.531V11.345H21.5V16.9a.517.517,0,0,0,.163.376.575.575,0,0,0,.4.156H36.6Zm-2.974-3.032H29.487V11.314h4.135ZM36.5,10.254H4.415v-3.8A68.467,68.467,0,0,0,20.457,8.346,68.461,68.461,0,0,0,36.5,6.454Zm3.3-5.843A63.464,63.464,0,0,1,20.457,7.285,63.464,63.464,0,0,1,1.119,4.411V1.287A65.537,65.537,0,0,0,20.457,4.1,65.536,65.536,0,0,0,39.8,1.287Z" transform="translate(0.25 0.252)"/>
</svg>
