<svg xmlns="http://www.w3.org/2000/svg" width="36.345" height="35.838" viewBox="0 0 36.345 35.838">
  <defs>
    <style>
      .cls-1 {
        fill: #199f92;
      }
    </style>
  </defs>
  <g id="main_hotspot_bag_off" data-name="main hotspot bag off" transform="translate(0)">
    <g id="Group_1300" data-name="Group 1300" transform="translate(0 0)">
      <g id="Group_1299" data-name="Group 1299">
        <path id="Path_503" data-name="Path 503" class="cls-1" d="M20.681,6.916H15.96V5.187a5.187,5.187,0,0,0-10.374,0V6.916H.864A.865.865,0,0,0,0,7.78V29.526a3.461,3.461,0,0,0,3.458,3.458H16.727a.864.864,0,0,0,0-1.729H3.458a1.731,1.731,0,0,1-1.729-1.729V8.645H5.586v.865a.865.865,0,0,0,1.729,0V8.645h6.916v.865a.864.864,0,0,0,1.729,0V8.645h3.857V18.2a.865.865,0,1,0,1.729,0V7.78A.865.865,0,0,0,20.681,6.916Zm-6.45,0H7.315V5.187a3.458,3.458,0,0,1,6.916,0Z" transform="translate(0)"/>
      </g>
    </g>
    <g id="Group_1302" data-name="Group 1302" transform="translate(18.934 16.492)">
      <g id="Group_1301" data-name="Group 1301">
        <path id="Path_504" data-name="Path 504" class="cls-1" d="M240.444,195.869h-3a4.835,4.835,0,0,0-9.475,0h-3a.968.968,0,0,0-.967.967v10.64a3.873,3.873,0,0,0,3.869,3.869h9.673a3.873,3.873,0,0,0,3.869-3.869v-10.64A.968.968,0,0,0,240.444,195.869Zm-7.738-1.935a2.9,2.9,0,0,1,2.724,1.935h-5.448A2.9,2.9,0,0,1,232.706,193.934Zm6.771,13.542a1.936,1.936,0,0,1-1.935,1.935h-9.673a1.936,1.936,0,0,1-1.935-1.935V197.8h1.935v.967a.967.967,0,1,0,1.935,0V197.8h5.8v.967a.967.967,0,1,0,1.935,0V197.8h1.935Z" transform="translate(-224 -192)"/>
      </g>
    </g>
  </g>
</svg>
