<svg id="main_hotspot_popcorn_off" data-name="main hotspot popcorn off" xmlns="http://www.w3.org/2000/svg" width="35.641" height="39.843" viewBox="0 0 35.641 39.843">
  <defs>
    <style>
      .cls-1 {
        fill: #199f92;
      }
    </style>
  </defs>
  <path id="Path_505" data-name="Path 505" class="cls-1" d="M61.638,29.663a3.429,3.429,0,1,0-4.85-4.85q-.088.088-.17.183a3.412,3.412,0,0,0-2.064-.068l1.137-10.419a2.643,2.643,0,0,0,1.169-4.336,4.046,4.046,0,0,0-1.639-4.531,3.348,3.348,0,0,0-6.01-2.668,3.026,3.026,0,0,0-2.253.055,3.935,3.935,0,0,0-5.214-1.5,3.277,3.277,0,0,0-5.706.3,3.936,3.936,0,0,0-5.931,3.391q0,.089,0,.178a3.01,3.01,0,0,0-2.137,4.534,2.644,2.644,0,0,0,.822,4.556L31.489,39.15a.778.778,0,0,0,.774.694H51.294a3.433,3.433,0,0,0,1.942-.6A3.429,3.429,0,0,0,57.954,34.4h0l-.011-.014q.141.012.28.012a3.435,3.435,0,0,0,3.384-2.885h0a3.427,3.427,0,0,0-.152-1.684q.094-.082.183-.17ZM49.815,33.321a3.427,3.427,0,0,0-1,.722l1.323-19.421h3.97L52.871,26.006a3.421,3.421,0,0,0-.468,3.739,3.435,3.435,0,0,0-2.6,3.327Q49.806,33.2,49.815,33.321Zm-5.27,4.966H40.018l-.59-23.665h5.707ZM29.457,9.328a1.454,1.454,0,0,1,1.094-2.412,1.468,1.468,0,0,1,.319.036.778.778,0,0,0,.91-1,2.378,2.378,0,0,1,4.1-2.246.778.778,0,0,0,1.379-.475,1.726,1.726,0,0,1,1.715-1.673,1.706,1.706,0,0,1,1.672,1.331.778.778,0,0,0,1.291.394,2.377,2.377,0,0,1,3.92,1.106.778.778,0,0,0,1.29.357,1.452,1.452,0,0,1,1.905-.094A.778.778,0,0,0,50.267,4.3a1.791,1.791,0,0,1,3.483.59,1.773,1.773,0,0,1-.18.783.778.778,0,0,0,.393,1.056,2.477,2.477,0,0,1,1.482,2.657,2.65,2.65,0,0,0-.519-.051s-25.4,0-25.462.007Zm.187,1.559H54.926a1.089,1.089,0,0,1,0,2.179H29.645a1.089,1.089,0,1,1,0-2.179Zm.733,3.735h4.042l1.612,23.665H32.96Zm25.895,23.31a1.873,1.873,0,0,1-2.467-.241.778.778,0,0,0-1.14,0,1.873,1.873,0,1,1-1.794-3.1.778.778,0,0,0,.57-.981,1.873,1.873,0,1,1,3.588,0,.778.778,0,0,0,.57.981,1.871,1.871,0,0,1,1.093.726h0a1.875,1.875,0,0,1-.421,2.615Zm4.265-9.369a1.87,1.87,0,0,1-.436.324.778.778,0,0,0-.291,1.1,1.872,1.872,0,1,1-3.461.924.778.778,0,0,0-.778-.807h-.028a1.873,1.873,0,1,1,.924-3.461.778.778,0,0,0,1.1-.291,1.873,1.873,0,1,1,2.973,2.213Z" transform="translate(-26.999 0)"/>
</svg>
