<svg xmlns="http://www.w3.org/2000/svg" width="53.648" height="37.769" viewBox="0 0 53.648 37.769">
  <defs>
    <style>
      .cls-1 {
        fill: #199f92;
      }
    </style>
  </defs>
  <path id="main_hotspot_mountain_off" data-name="main hotspot mountain off" class="cls-1" d="M53.646,188.912a2.613,2.613,0,0,0-2.909-2.632c-.605-1.285,2.04,4.574-8.825-19.545h0l-3.724-8.267a1.921,1.921,0,0,0-3.584,0l-2.964,6.579-4.456-9.892h0a1.747,1.747,0,0,0-3.258,0l-3.653,8.11a.4.4,0,0,1-.753,0,1.747,1.747,0,0,0-3.259,0l-5.909,13.118-.16-.356a1.282,1.282,0,0,0-2.392,0h0L1.479,190.063H.786a.877.877,0,0,0,0,1.745H45.714a.877.877,0,0,0,0-1.745H31.66a.7.7,0,0,1,.069-1.391,1.15,1.15,0,0,0,1.249-1.017,1.542,1.542,0,0,1,1.464-1.343,1.477,1.477,0,0,1,1.3.839,1.152,1.152,0,0,0,1.282.64,1.066,1.066,0,0,1,.739-.027c.919.329,1.094-.588,1.981-.393a1.1,1.1,0,0,0,1.294-1.015A2.557,2.557,0,0,1,43.46,184a2.426,2.426,0,0,1,2.135,1.389,1.319,1.319,0,0,0,1.222.758,1.18,1.18,0,0,0,.338-.067,1.8,1.8,0,0,1,2.258,1.173,1.184,1.184,0,0,0,1.468.777.959.959,0,0,1,1.194.952.994.994,0,0,1-.934,1.081H44.034a.877.877,0,0,0,0,1.745h7.108A2.666,2.666,0,0,0,53.646,188.912ZM36.01,159.249a.414.414,0,0,1,.772,0l3.473,7.711-2.77,3.141a.17.17,0,0,1-.249.012l-1.679-1.6a1.638,1.638,0,0,0-2.506.249l-.9,1.232a.17.17,0,0,1-.265.021l-.5-.51ZM9,177.274l2.145,4.762L10,183.33l-1.258-1.2a1.413,1.413,0,0,0-1.893-.09ZM3.236,190.063l2.3-5.1c1.126.313,1.631-.677,2.22-1.484l1.255,1.2a1.424,1.424,0,0,0,2.09-.1l.79-.9,2.872,6.376Zm17.136,0H16.516l-5.284-11.73,6.436-14.288a.239.239,0,0,1,.447,0,1.91,1.91,0,0,0,3.564,0l3.653-8.11a.239.239,0,0,1,.447,0h0L30.762,167Zm27.254-5.823a3.081,3.081,0,0,0-.756.117,3.955,3.955,0,0,0-3.41-2.1,4.135,4.135,0,0,0-3.893,3.347,2.567,2.567,0,0,0-1.5.446,2.379,2.379,0,0,0-1.118-.034,2.993,2.993,0,0,0-2.505-1.447,3.118,3.118,0,0,0-2.916,2.36,2.351,2.351,0,0,0-2.066,2.4h0a2.888,2.888,0,0,0,.09.733H22.13l8.529-18.935.161.166h0a1.641,1.641,0,0,0,2.553-.2l.9-1.232a.17.17,0,0,1,.26-.026l1.679,1.6a1.634,1.634,0,0,0,2.4-.114L41,168.611l7.048,15.645A3.1,3.1,0,0,0,47.626,184.24Z" transform="translate(0 -154.038)"/>
</svg>
