<svg xmlns="http://www.w3.org/2000/svg" width="46.218" height="43.263" viewBox="0 0 46.218 43.263">
  <defs>
    <style>
      .cls-1, .cls-3 {
        fill: #199f92;
      }

      .cls-1 {
        stroke: #199f92;
        stroke-width: 0.5px;
      }

      .cls-2 {
        fill: #fff;
      }
    </style>
  </defs>
  <g id="main_hotspot_sport_off" data-name="main hotspot sport off" transform="translate(0.273 0.193)">
    <g id="_026---Ping-Pong" data-name="026---Ping-Pong" transform="translate(0 5.855) rotate(-9)">
      <path id="Shape" class="cls-1" d="M32.774,4.653C29.443,1.326,25.2-1.7,19.009,1.1c-.935.423-1.848.893-2.727,1.39A5.6,5.6,0,0,0,8.4,9.261a9.608,9.608,0,0,0-1.812,5.427A22.269,22.269,0,0,0,7.63,20.7a5.63,5.63,0,0,1-.349,5.225L.636,32.092a1.984,1.984,0,0,0-.054,2.86l1.856,1.854a1.971,1.971,0,0,0,1.4.583h.039A1.973,1.973,0,0,0,5.3,36.755L11.487,30.1a5.689,5.689,0,0,1,5.218-.333,22.249,22.249,0,0,0,6.023,1.042h.026c5.858,0,10.85-6.406,13.569-12.407C39.125,12.206,36.1,7.973,32.774,4.653ZM13.712,3.111A4.363,4.363,0,1,1,9.349,7.474,4.363,4.363,0,0,1,13.712,3.111Zm-4.9,17.2a20.121,20.121,0,0,1-.853-4l4.667,4.663L9.261,24.091a7.7,7.7,0,0,0-.449-3.783Zm-4.425,15.6a.737.737,0,0,1-.53.236.816.816,0,0,1-.537-.217L1.464,34.072a.739.739,0,0,1,.019-1.064L13.508,21.851l2.044,2.042-4.924,5.294c-.01.011-.021.02-.029.032Zm8.926-7.773,3.121-3.358,4.664,4.66a20.167,20.167,0,0,1-4-.852A7.794,7.794,0,0,0,13.313,28.134ZM35.189,17.887C32.783,23.2,28.157,29.382,22.98,29.553L7.845,14.431a8.132,8.132,0,0,1,1.2-3.854A5.6,5.6,0,1,0,17.43,3.285c.681-.369,1.376-.724,2.091-1.047,4.435-2,8.02-1.048,12.372,3.3s5.3,7.918,3.294,12.353Z" transform="translate(0 0)"/>
    </g>
    <ellipse id="Ellipse_127" data-name="Ellipse 127" class="cls-2" cx="10.813" cy="10.813" rx="10.813" ry="10.813" transform="translate(23.488 19.758)"/>
    <path id="Path_512" data-name="Path 512" class="cls-3" d="M19.751,3.389A11.57,11.57,0,0,0,3.389,19.751,11.57,11.57,0,0,0,19.751,3.389Zm2.022,8.649q-.2-.132-.408-.256a11.513,11.513,0,0,0-9.688-1.005A10.181,10.181,0,0,1,8.855,6.822a19.756,19.756,0,0,1,4.2-.889,18.946,18.946,0,0,1,7.455.685,10.158,10.158,0,0,1,1.276,4.952C21.783,11.726,21.779,11.882,21.772,12.038Zm-10.55,9.739A10.133,10.133,0,0,1,6.2,20.26a11.592,11.592,0,0,0,5.994-8.226,10.183,10.183,0,0,1,4.865-.4,19.759,19.759,0,0,1-1.387,4.06,18.93,18.93,0,0,1-4.447,6.088Zm7.57-17.43q.272.272.522.561a20.775,20.775,0,0,0-6.4-.325,21.114,21.114,0,0,0-4.475.947,10.277,10.277,0,0,1-.3-2.487A10.383,10.383,0,0,1,8.2,1.924a10.238,10.238,0,0,1,10.6,2.423Zm-14.444,0a10.248,10.248,0,0,1,2.443-1.81c-.007.169-.011.338-.011.507a11.512,11.512,0,0,0,4.068,8.807,10.156,10.156,0,0,1-1.28,3.407,10.408,10.408,0,0,1-.664.982,19.8,19.8,0,0,1-2.7-3.2A18.861,18.861,0,0,1,3.228,5.895.678.678,0,0,0,3.18,5.74,10.331,10.331,0,0,1,4.347,4.347ZM1.356,11.57A10.191,10.191,0,0,1,2.2,7.5a20.637,20.637,0,0,0,2.886,6.3,21.143,21.143,0,0,0,2.927,3.466,10.1,10.1,0,0,1-3.052,2.092q-.314-.268-.61-.562A10.147,10.147,0,0,1,1.356,11.57Zm17.436,7.222A10.139,10.139,0,0,1,13.3,21.638a20.759,20.759,0,0,0,3.6-5.376,21.12,21.12,0,0,0,1.479-4.328,10.277,10.277,0,0,1,2.292,1.012,10.382,10.382,0,0,1,.92.618,10.142,10.142,0,0,1-2.8,5.227Z" transform="translate(22.805 19.075)"/>
  </g>
</svg>
