<svg xmlns="http://www.w3.org/2000/svg" width="39.726" height="41.582" viewBox="0 0 39.726 41.582">
  <defs>
    <style>
      .cls-1 {
        fill: #199f92;
      }
    </style>
  </defs>
  <path id="main_hotspot_amusement_off" data-name="main hotspot amusement off" class="cls-1" d="M32.135,40.368H25.052L24.534,33.6a13.916,13.916,0,0,0,3.3-1.208l.8,1.4a2.235,2.235,0,1,0,3.568.4h0a2.237,2.237,0,0,0-2.532-1.039l-.787-1.37a13.817,13.817,0,0,0,1.624-1.2c3.863-3.584,1.636-2.808,1.417-3.062s-.551.675-2.21,2.142a12.66,12.66,0,0,1-5.281,2.712l-.118-1.533a11.265,11.265,0,0,0,8.336-10.882C32.6,7.753,15.8,4.389,11.109,15.668c-.289.744.385,3.745.385,3.745a16.049,16.049,0,0,1,.39-2.3,10.334,10.334,0,0,1,.619-1.581l6.688,3.882h-7.7c.009-.536-.385-3.745-.385-3.745a10.466,10.466,0,0,0-.752,2.836A11.3,11.3,0,0,0,18.6,30.847l-.118,1.536C4.092,28.653,6.424,7.492,21.462,7.193c10.313-.2,16.5,12.433,10.106,20.511a.607.607,0,0,0,.968.734q.337-.445.635-.91l1.386.8a2.233,2.233,0,1,0,.579-1.068l-1.354-.786a13.885,13.885,0,0,0,1.579-5.851h1.6a2.231,2.231,0,1,0-.03-1.214H35.365a13.945,13.945,0,0,0-1.539-5.86l1.39-.807a2.233,2.233,0,1,0-.632-1.037l-1.362.79A14.065,14.065,0,0,0,28.98,8.2l.806-1.4a2.236,2.236,0,1,0-1.066-.582l-.787,1.371a13.765,13.765,0,0,0-5.918-1.6V4.408a2.239,2.239,0,1,0-1.214-.03V5.995a13.762,13.762,0,0,0-5.81,1.591L14.2,6.216a2.25,2.25,0,0,0,.374-2.72h0a2.237,2.237,0,1,0-1.44,3.3l.806,1.4A14.063,14.063,0,0,0,9.7,12.5l-1.362-.79a2.233,2.233,0,1,0-.632,1.037l1.39.807a13.945,13.945,0,0,0-1.539,5.86H5.99a2.231,2.231,0,1,0-.03,1.214h1.6a13.942,13.942,0,0,0,1.586,5.847l-1.361.79a2.233,2.233,0,1,0,.579,1.068l1.392-.808a14.062,14.062,0,0,0,4.276,4.265l-.788,1.373A2.237,2.237,0,0,0,10.713,34.2h0a2.235,2.235,0,1,0,3.568-.4l.8-1.4a13.779,13.779,0,0,0,3.3,1.213l-.518,6.759H10.788a.607.607,0,0,0,0,1.214H32.134a.607.607,0,0,0,0-1.214Zm-2.364-5.937a1.022,1.022,0,0,1,1.013,1.776A1.022,1.022,0,0,1,29.771,34.431Zm6.082-6.114a1.018,1.018,0,0,1,1.758,1.027A1.018,1.018,0,0,1,35.853,28.316Zm3.241-9.375a1.025,1.025,0,0,1,0,2.049,1.025,1.025,0,0,1,0-2.049Zm-2.869-8.727a1.022,1.022,0,0,1,1.013,1.776A1.022,1.022,0,0,1,36.225,10.215ZM29.4,4.1a1.018,1.018,0,0,1,1.758,1.027A1.018,1.018,0,0,1,29.4,4.1ZM20.446,2.239a1.016,1.016,0,0,1,2.031,0A1.016,1.016,0,0,1,20.446,2.239ZM13.152,5.5a1.022,1.022,0,0,1-1.013-1.776A1.022,1.022,0,0,1,13.152,5.5ZM7.07,11.616a1.018,1.018,0,0,1-1.758-1.027A1.018,1.018,0,0,1,7.07,11.616ZM3.829,20.991a1.02,1.02,0,1,1,1.016-1.025A1.03,1.03,0,0,1,3.829,20.991ZM6.7,29.718a1.022,1.022,0,0,1-1.013-1.776A1.022,1.022,0,0,1,6.7,29.718Zm6.826,6.114a1.018,1.018,0,0,1-1.758-1.027A1.018,1.018,0,0,1,13.524,35.832Zm13.4-7.466L23.7,22.759,23.645,22l6.112,3.548A10.092,10.092,0,0,1,26.923,28.366Zm3.445-3.87L23.7,20.627h7.721A10.007,10.007,0,0,1,30.369,24.5Zm1.061-5.084h-7.7l6.686-3.881A10.01,10.01,0,0,1,31.429,19.413Zm-1.613-4.936-6.661,3.866,3.858-6.717a10.094,10.094,0,0,1,2.8,2.851Zm-7.8-4.535a9.868,9.868,0,0,1,3.952,1.067l-3.952,6.883ZM20.8,9.949V17.7L16.952,11A9.928,9.928,0,0,1,20.8,9.949Zm-7.7,4.524a9.976,9.976,0,0,1,2.8-2.856l3.863,6.726Zm-1.6,6.154H19.22L12.554,24.5A10.007,10.007,0,0,1,11.5,20.627Zm1.666,4.918L19.278,22l-.058.761L16,28.366A10.091,10.091,0,0,1,13.166,25.546Zm5.528,4.068a9.88,9.88,0,0,1-1.642-.641L19,25.573Zm.394,10.754,1.51-19.7a.87.87,0,0,1,1.727,0l1.51,19.7Zm4.831-14.795,1.952,3.4a9.881,9.881,0,0,1-1.643.641Z" transform="translate(-1.598 0)"/>
</svg>
