<svg xmlns="http://www.w3.org/2000/svg" width="16" height="18" viewBox="0 0 16 18">
  <defs>
    <style>
      .cls-1 {
        fill: #fff;
        stroke-linecap: round;
        stroke-linejoin: round;
      }

      .cls-2, .cls-3 {
        stroke: none;
      }

      .cls-3 {
        fill: #707070;
      }
    </style>
  </defs>
  <g id="Path_8" data-name="Path 8" class="cls-1">
    <path class="cls-2" d="M 0.5 17.20013999938965 L 0.5 0.5 L 15.5 0.5 L 15.5 8.960539817810059 L 15.5 17.18127822875977 L 8.436679840087891 13.55519008636475 L 8.214159965515137 13.44095039367676 L 7.989299774169922 13.55053043365479 L 0.5 17.20013999938965 Z"/>
    <path class="cls-3" d="M 1 1 L 1 16.4002799987793 L 7.770270347595215 13.10105991363525 C 7.908613204956055 13.03364276885986 8.058493614196777 13.00000190734863 8.208328247070312 13.00000190734863 C 8.365086555480957 13.00000190734863 8.521791458129883 13.03684616088867 8.665029525756836 13.11038017272949 L 15 16.36255645751953 L 15 8.960539817810059 L 15 1 L 1 1 M 0 0 L 16 0 L 16 8.960539817810059 L 16 18 L 8.208330154418945 14 L 0 18 L 0 0 Z"/>
  </g>
</svg>
