<svg xmlns="http://www.w3.org/2000/svg" width="370.849" height="361.144" viewBox="0 0 370.849 361.144">
  <defs>
    <style>
      .cls-1 {
        fill: rgba(25,159,146,0.05);
      }
    </style>
  </defs>
  <g id="Group_224" data-name="Group 224" transform="matrix(0.951, -0.309, 0.309, 0.951, -507.294, 106.259)">
    <path id="Path_98" data-name="Path 98" class="cls-1" d="M551.127,239.9a49.507,49.507,0,1,0-49.51-49.5A49.558,49.558,0,0,0,551.127,239.9Zm0-86.938a37.431,37.431,0,1,1-37.434,37.434A37.472,37.472,0,0,1,551.127,152.958Z" transform="translate(117.671 127.482)"/>
    <path id="Path_99" data-name="Path 99" class="cls-1" d="M755.3,163.115H736.935l-21.08-35.671a6.048,6.048,0,0,0-5.2-2.963H626.936a6.032,6.032,0,0,0-5.2,2.963l-21.08,35.671H566.154v-7.241a21.735,21.735,0,0,0-43.47,0v7.241H507.422A30.655,30.655,0,0,0,476.8,193.739V342.6a30.653,30.653,0,0,0,30.618,30.618H755.3A30.653,30.653,0,0,0,785.917,342.6V193.739A30.655,30.655,0,0,0,755.3,163.115ZM630.382,136.551h76.826l15.7,26.564H614.682Zm-95.62,19.323a9.661,9.661,0,0,1,19.322,0v7.241H534.761ZM773.841,342.6A18.563,18.563,0,0,1,755.3,361.144H507.422A18.563,18.563,0,0,1,488.88,342.6V193.739a18.564,18.564,0,0,1,18.542-18.548H755.3a18.564,18.564,0,0,1,18.542,18.548V342.6Z" transform="translate(0 49.704)"/>
    <path id="Path_100" data-name="Path 100" class="cls-1" d="M515.228,158.3a6.035,6.035,0,0,0,6.035-6.035V120.035a6.038,6.038,0,0,0-12.076,0v32.226A6.036,6.036,0,0,0,515.228,158.3Z" transform="translate(153.57)"/>
    <path id="Path_101" data-name="Path 101" class="cls-1" d="M520.228,149.979a5.993,5.993,0,0,0,4.267-1.768l22.154-22.148a6.038,6.038,0,0,0-8.538-8.539l-22.154,22.154a6.032,6.032,0,0,0,4.272,10.3Z" transform="translate(177.298 8.317)"/>
    <path id="Path_102" data-name="Path 102" class="cls-1" d="M524.245,148.214a6.038,6.038,0,1,0,8.539-8.539l-22.148-22.154a6.038,6.038,0,1,0-8.539,8.539Z" transform="translate(111.552 8.319)"/>
    <path id="Path_103" data-name="Path 103" class="cls-1" d="M522.228,139.831H490.835a6.038,6.038,0,1,0,0,12.076h31.393a6.038,6.038,0,0,0,0-12.076Z" transform="translate(37.891 122.498)"/>
    <path id="Path_104" data-name="Path 104" class="cls-1" d="M574.17,290.266a77.1,77.1,0,1,1,77.1-77.1A77.184,77.184,0,0,1,574.17,290.266Zm0-143.558a66.461,66.461,0,1,0,66.461,66.461A66.536,66.536,0,0,0,574.17,146.709Z" transform="translate(96.127 104.682)"/>
  </g>
</svg>
