<svg xmlns="http://www.w3.org/2000/svg" width="325.885" height="243.488" viewBox="0 0 325.885 243.488">
  <defs>
    <style>
      .cls-1 {
        fill: rgba(25,159,146,0.1);
      }
    </style>
  </defs>
  <g id="News_icon" data-name="News icon" transform="matrix(0.966, -0.259, 0.259, 0.966, -410.021, -32.721)">
    <g id="Group_233" data-name="Group 233" transform="translate(369.001 196.5)">
      <path id="Path_111" data-name="Path 111" class="cls-1" d="M408.411,285.733a15.431,15.431,0,0,1-17.09.013V229.361q-4.2-.322-8.412-.5v58.992a4.215,4.215,0,0,0,1.5,3.222,24.335,24.335,0,0,0,14.049,5.615c.467.025.925.038,1.38.038a24.646,24.646,0,0,0,15.47-5.645,4.2,4.2,0,0,0,1.514-3.23V232.705q-4.2-.782-8.412-1.409Z" transform="translate(-324.408 -92.731)"/>
      <path id="Path_112" data-name="Path 112" class="cls-1" d="M461.417,319.845a248.55,248.55,0,0,0-33.031-3.647c-3.386-.143-6.776-.244-10.171-.248a254.577,254.577,0,0,0-25.528,1.291c-3.462-4.219-18.087-23.849-14.793-50.576a63.862,63.862,0,0,1,14.894-33.726l.114-.13c8.551-.219,17.182-.715,25.679-1.468a414.9,414.9,0,0,0,92.92-19.374,66,66,0,0,1,11.609-12.955,408.692,408.692,0,0,1-105.278,23.95c-8.917.795-17.99,1.291-26.949,1.481a4.219,4.219,0,0,0-3.062,1.417l-1.354,1.531A72.4,72.4,0,0,0,369.54,265.64c-3.777,30.672,13.389,53.036,16.951,57.306l1.329,1.5a4.172,4.172,0,0,0,3.617,1.392,236.926,236.926,0,0,1,26.76-1.472c3.1,0,6.2.088,9.3.215q4.208.17,8.412.5,8.562.65,17.09,1.935,4.208.625,8.412,1.409a258.245,258.245,0,0,1,55.96,17.3,75.425,75.425,0,0,1-9.418-12.934A261.777,261.777,0,0,0,461.417,319.845Z" transform="translate(-369.001 -188.443)"/>
      <path id="Path_113" data-name="Path 113" class="cls-1" d="M412.087,237.731h0Z" transform="translate(-230.877 -64.308)"/>
      <path id="Path_114" data-name="Path 114" class="cls-1" d="M455.309,196.5l-.046,0-.071,0c-9.767.034-18.962,3.857-26.987,10.562A66,66,0,0,0,416.6,220.025C405.55,235.858,398.6,258.289,398.6,283.211c0,22.133,5.5,42.289,14.452,57.629a75.425,75.425,0,0,0,9.418,12.934c9.279,10.12,20.589,16.143,32.83,16.148h.008c31.269,0,56.708-38.9,56.708-86.711S486.578,196.5,455.309,196.5Zm0,165.01c-15.937,0-30.054-12.631-38.853-31.988a34.774,34.774,0,0,1-4.3.631,3.281,3.281,0,0,1-.349.017,4.207,4.207,0,0,1-.345-8.4c.6-.05,1.182-.164,1.771-.252a121.124,121.124,0,0,1,0-76.625c-.585-.088-1.169-.193-1.762-.244a4.2,4.2,0,1,1,.669-8.383,36.523,36.523,0,0,1,4.316.627c8.8-19.349,22.92-31.98,38.853-31.98,26.63,0,48.3,35.126,48.3,78.3S481.939,361.51,455.309,361.51Z" transform="translate(-274.096 -196.5)"/>
      <path id="Path_115" data-name="Path 115" class="cls-1" d="M443.612,250.674c-.892-22.15-15.21-40.3-34.016-44.081a36.523,36.523,0,0,0-4.316-.627,4.2,4.2,0,1,0-.669,8.383c.593.05,1.178.156,1.762.244,15.567,2.284,28.085,17.872,28.834,36.422.812,20.139-11.992,37.713-28.838,40.2-.589.088-1.169.2-1.771.252a4.207,4.207,0,0,0,.345,8.4,3.281,3.281,0,0,0,.349-.017,34.774,34.774,0,0,0,4.3-.631C429.622,295.1,444.563,274.3,443.612,250.674Z" transform="translate(-267.236 -166.201)"/>
    </g>
    <g id="Group_234" data-name="Group 234" transform="translate(617.943 285.007)">
      <line id="Line_26" data-name="Line 26" x2="52.925" transform="translate(4.207 4.204)"/>
      <path id="Path_116" data-name="Path 116" class="cls-1" d="M485.318,225.954H432.391a4.206,4.206,0,1,1,0-8.412h52.927a4.206,4.206,0,1,1,0,8.412Z" transform="translate(-428.185 -217.542)"/>
    </g>
    <g id="Group_235" data-name="Group 235" transform="translate(617.129 231.58)">
      <line id="Line_27" data-name="Line 27" y1="22.841" x2="44.229" transform="translate(4.206 4.208)"/>
      <path id="Path_117" data-name="Path 117" class="cls-1" d="M432.2,236.1a4.207,4.207,0,0,1-1.935-7.946l44.229-22.84a4.206,4.206,0,1,1,3.861,7.474L434.13,235.629A4.235,4.235,0,0,1,432.2,236.1Z" transform="translate(-427.991 -204.84)"/>
    </g>
    <g id="Group_236" data-name="Group 236" transform="translate(616.864 313.426)">
      <line id="Line_28" data-name="Line 28" x2="44.229" y2="22.841" transform="translate(4.208 4.209)"/>
      <path id="Path_118" data-name="Path 118" class="cls-1" d="M476.361,255.554a4.235,4.235,0,0,1-1.926-.467l-44.228-22.84a4.208,4.208,0,1,1,3.861-7.479l44.229,22.84a4.207,4.207,0,0,1-1.935,7.946Z" transform="translate(-427.928 -224.298)"/>
    </g>
  </g>
</svg>
