<svg xmlns="http://www.w3.org/2000/svg" width="44" height="44" viewBox="0 0 44 44">
  <defs>
    <style>
      .cls-1 {
        fill: #199f92;
      }

      .cls-2 {
        fill: #fff;
      }
    </style>
  </defs>
  <g id="Group_386" data-name="Group 386" transform="translate(-451.951 -55.128)">
    <path id="Path_78" data-name="Path 78" class="cls-1" d="M22,0A22,22,0,1,1,0,22,22,22,0,0,1,22,0Z" transform="translate(451.952 55.128)"/>
    <g id="search_icon" data-name="search icon" transform="translate(461.076 64.091)">
      <path id="Path_6" data-name="Path 6" class="cls-2" d="M10.869,21.346A10.673,10.673,0,1,1,21.542,10.673,10.685,10.685,0,0,1,10.869,21.346Zm0-19.323a8.65,8.65,0,1,0,8.65,8.65,8.659,8.659,0,0,0-8.65-8.65ZM25.8,25.622a1.012,1.012,0,0,0,0-1.431l-4.527-4.527a1.012,1.012,0,0,0-1.431,1.431l4.527,4.527a1.012,1.012,0,0,0,1.431,0Z" transform="translate(-0.196 0)"/>
    </g>
  </g>
</svg>
