<svg id="search_icon" data-name="search icon" xmlns="http://www.w3.org/2000/svg" width="29.754" height="29.777" viewBox="0 0 29.754 29.777">
  <defs>
    <style>
      .cls-1 {
        fill: #199f92;
      }
    </style>
  </defs>
  <path id="Path_6" data-name="Path 6" class="cls-1" d="M12.458,24.524A12.262,12.262,0,1,1,24.72,12.262,12.276,12.276,0,0,1,12.458,24.524Zm0-22.2A9.937,9.937,0,1,0,22.4,12.262a9.949,9.949,0,0,0-9.937-9.937ZM29.61,29.437a1.162,1.162,0,0,0,0-1.644l-5.2-5.2a1.162,1.162,0,1,0-1.644,1.644l5.2,5.2a1.162,1.162,0,0,0,1.644,0Z" transform="translate(-0.196 0)"/>
</svg>
